<svg width="30" height="30" viewBox="0 0 30 30" fill="none" xmlns="http://www.w3.org/2000/svg">
<rect width="30" height="30" fill="white"/>
<path fill-rule="evenodd" clip-rule="evenodd" d="M9.60959 4.8515C11.3185 3.97579 13.2034 3.52543 15.1385 3.52543C21.8486 3.52543 27.277 8.92979 27.277 15.6102C27.277 22.2906 21.8486 27.6949 15.1385 27.6949C8.4284 27.6949 3 22.2906 3 15.6102C3 12.3325 4.33197 9.23003 6.64407 6.97821V5.97741V4.8515V3.92575V3H7.69959H10.1876V3.92575H7.69959V4.8515H9.13209H9.60959ZM13.6055 14.3842V13.5835H10.9918V14.3592V14.7345V17.0613V17.2865V18.1872H13.6055V17.6118V17.0363V14.7095V14.3842ZM11.8463 17.0363H12.7259V14.7095H11.8463V17.0363ZM17.7522 13.5835V14.7095V17.0363V18.1622H18.6318H20.3659V17.0363H18.6318V16.3358H20.3659V15.41H18.6318V14.7095H20.3659V13.5835H18.6318H17.7522ZM15.1385 5.6021C20.6926 5.6021 25.1911 10.0807 25.1911 15.6102C25.1911 21.1396 20.6926 25.6182 15.1385 25.6182C9.58445 25.6182 5.08591 21.1396 5.08591 15.6102C5.08591 13.6836 5.63881 11.8321 6.6692 10.2308V7.82891C4.70894 9.95562 3.60316 12.7078 3.60316 15.6102C3.60316 21.9653 8.78025 27.0944 15.1385 27.0944C21.4968 27.0944 26.6739 21.9403 26.6739 15.6102C26.6739 9.25505 21.4968 4.12591 15.1385 4.12591C13.4296 4.12591 11.7458 4.50122 10.2127 5.2268V6.00242V6.90316C11.7206 6.05247 13.4044 5.6021 15.1385 5.6021ZM6.6692 11.4318C6.01578 12.7329 5.68907 14.159 5.68907 15.6352C5.68907 20.8394 9.93629 25.0678 15.1636 25.0678C18.7826 25.0678 21.9492 23.0412 23.5324 20.0638H7.39801L6.89538 18.9379H14.3594V18.2123V17.0864V14.7595V13.6336H16.9731V14.7595V17.0864V17.5868V18.2373H15.239V18.9629H23.7586V18.5876V18.4875V18.2373H21.1449V17.887V17.1114V13.6336H22.0245V17.1114H22.9041V13.6336H23.7838V17.1114H24.5377C24.6131 16.636 24.6382 16.1606 24.6382 15.6852C24.6382 10.481 20.391 6.25262 15.1636 6.25262C13.4044 6.25262 11.7206 6.72801 10.2379 7.62873V17.1114V18.2373H9.18235H7.74985H6.69433V17.1114V11.4318H6.6692ZM9.15722 17.0363V5.97741H7.72472V17.0363H9.15722ZM15.239 17.0363H16.1186V14.7095H15.239V17.0363Z" fill="#D22630"/>
</svg>
